{
	"asset":{
		"generator":"Khronos glTF Blender I/O v4.0.44",
		"version":"2.0"
	},
	"scene":0,
	"scenes":[
		{
			"name":"Scene",
			"nodes":[
				0,
				1,
				2,
				3
			]
		}
	],
	"nodes":[
		{
			"mesh":0,
			"name":"icing",
			"rotation":[
				0.5309482216835022,
				0.14291062951087952,
				-0.2679366171360016,
				0.7911260724067688
			],
			"scale":[
				0.46544721722602844,
				0.46544724702835083,
				0.4654472768306732
			],
			"translation":[
				0.02289525792002678,
				0.046476926654577255,
				0.028490357100963593
			]
		},
		{
			"mesh":1,
			"name":"icing.001",
			"rotation":[
				-0.013701914809644222,
				-0.0060639032162725925,
				-0.0008825219701975584,
				0.9998873472213745
			],
			"scale":[
				0.46544724702835083,
				0.46544724702835083,
				0.4654472768306732
			],
			"translation":[
				-0.018090449273586273,
				0.008553240448236465,
				-0.04214174672961235
			]
		},
		{
			"mesh":2,
			"name":"Donut.008",
			"rotation":[
				0.5309482216835022,
				0.14291062951087952,
				-0.2679366171360016,
				0.7911260724067688
			],
			"scale":[
				0.46544721722602844,
				0.46544724702835083,
				0.4654472768306732
			],
			"translation":[
				0.02289525792002678,
				0.046476926654577255,
				0.028490357100963593
			]
		},
		{
			"mesh":3,
			"name":"Donut.001",
			"rotation":[
				-0.013701899908483028,
				-0.00606390368193388,
				-0.0008824847172945738,
				0.9998873472213745
			],
			"scale":[
				0.46544724702835083,
				0.46544724702835083,
				0.4654472768306732
			],
			"translation":[
				-0.018090449273586273,
				0.008553240448236465,
				-0.04214174672961235
			]
		}
	],
	"animations":[
		{
			"channels":[
				{
					"sampler":0,
					"target":{
						"node":0,
						"path":"translation"
					}
				},
				{
					"sampler":1,
					"target":{
						"node":0,
						"path":"rotation"
					}
				},
				{
					"sampler":2,
					"target":{
						"node":0,
						"path":"scale"
					}
				}
			],
			"name":"icingAction",
			"samplers":[
				{
					"input":49,
					"interpolation":"LINEAR",
					"output":50
				},
				{
					"input":49,
					"interpolation":"LINEAR",
					"output":51
				},
				{
					"input":49,
					"interpolation":"LINEAR",
					"output":52
				}
			]
		},
		{
			"channels":[
				{
					"sampler":0,
					"target":{
						"node":1,
						"path":"translation"
					}
				},
				{
					"sampler":1,
					"target":{
						"node":1,
						"path":"rotation"
					}
				},
				{
					"sampler":2,
					"target":{
						"node":1,
						"path":"scale"
					}
				}
			],
			"name":"icingAction.001",
			"samplers":[
				{
					"input":49,
					"interpolation":"LINEAR",
					"output":53
				},
				{
					"input":49,
					"interpolation":"LINEAR",
					"output":54
				},
				{
					"input":49,
					"interpolation":"LINEAR",
					"output":55
				}
			]
		},
		{
			"channels":[
				{
					"sampler":0,
					"target":{
						"node":2,
						"path":"translation"
					}
				},
				{
					"sampler":1,
					"target":{
						"node":2,
						"path":"rotation"
					}
				},
				{
					"sampler":2,
					"target":{
						"node":2,
						"path":"scale"
					}
				}
			],
			"name":"Donut.008Action",
			"samplers":[
				{
					"input":49,
					"interpolation":"LINEAR",
					"output":56
				},
				{
					"input":49,
					"interpolation":"LINEAR",
					"output":57
				},
				{
					"input":49,
					"interpolation":"LINEAR",
					"output":58
				}
			]
		},
		{
			"channels":[
				{
					"sampler":0,
					"target":{
						"node":3,
						"path":"translation"
					}
				},
				{
					"sampler":1,
					"target":{
						"node":3,
						"path":"rotation"
					}
				},
				{
					"sampler":2,
					"target":{
						"node":3,
						"path":"scale"
					}
				}
			],
			"name":"Donut.008Action.001",
			"samplers":[
				{
					"input":49,
					"interpolation":"LINEAR",
					"output":59
				},
				{
					"input":49,
					"interpolation":"LINEAR",
					"output":60
				},
				{
					"input":49,
					"interpolation":"LINEAR",
					"output":61
				}
			]
		}
	],
	"materials":[
		{
			"doubleSided":true,
			"name":"Material.005",
			"pbrMetallicRoughness":{
				"baseColorFactor":[
					0.05286962166428566,
					0.009720792062580585,
					0,
					1
				],
				"metallicFactor":0,
				"roughnessFactor":0.30263155698776245
			}
		},
		{
			"doubleSided":true,
			"name":"Material.007",
			"pbrMetallicRoughness":{
				"baseColorFactor":[
					0.30503901839256287,
					0.07035703212022781,
					0,
					1
				],
				"metallicFactor":0,
				"roughnessFactor":0.5
			}
		},
		{
			"doubleSided":true,
			"name":"Material.008",
			"pbrMetallicRoughness":{
				"baseColorFactor":[
					0.30503901839256287,
					0.07035703212022781,
					0,
					1
				],
				"metallicFactor":0,
				"roughnessFactor":0.5
			}
		},
		{
			"doubleSided":true,
			"name":"Material.009",
			"pbrMetallicRoughness":{
				"baseColorFactor":[
					0.800000011920929,
					0.800000011920929,
					0.800000011920929,
					1
				],
				"metallicFactor":0,
				"roughnessFactor":0.5
			}
		},
		{
			"doubleSided":true,
			"name":"Material.010",
			"pbrMetallicRoughness":{
				"baseColorFactor":[
					0.800000011920929,
					0.800000011920929,
					0.800000011920929,
					1
				],
				"metallicFactor":0,
				"roughnessFactor":0.5
			}
		},
		{
			"doubleSided":true,
			"name":"Material",
			"pbrMetallicRoughness":{
				"baseColorFactor":[
					0.30503901839256287,
					0.07035703212022781,
					0,
					1
				],
				"metallicFactor":0,
				"roughnessFactor":0.5
			}
		},
		{
			"doubleSided":true,
			"name":"Material.004",
			"pbrMetallicRoughness":{
				"baseColorTexture":{
					"index":0
				},
				"metallicFactor":0,
				"roughnessFactor":0.5
			}
		}
	],
	"meshes":[
		{
			"name":"Torus.003",
			"primitives":[
				{
					"attributes":{
						"POSITION":0,
						"NORMAL":1,
						"TEXCOORD_0":2
					},
					"indices":3,
					"material":0
				},
				{
					"attributes":{
						"POSITION":4,
						"NORMAL":5,
						"TEXCOORD_0":6
					},
					"indices":7,
					"material":1
				},
				{
					"attributes":{
						"POSITION":8,
						"NORMAL":9,
						"TEXCOORD_0":10
					},
					"indices":11,
					"material":2
				},
				{
					"attributes":{
						"POSITION":12,
						"NORMAL":13,
						"TEXCOORD_0":14
					},
					"indices":15,
					"material":3
				},
				{
					"attributes":{
						"POSITION":16,
						"NORMAL":17,
						"TEXCOORD_0":18
					},
					"indices":19,
					"material":4
				},
				{
					"attributes":{
						"POSITION":20,
						"NORMAL":21,
						"TEXCOORD_0":22
					},
					"indices":23,
					"material":5
				}
			]
		},
		{
			"name":"Torus.001",
			"primitives":[
				{
					"attributes":{
						"POSITION":24,
						"NORMAL":25,
						"TEXCOORD_0":26
					},
					"indices":3,
					"material":0
				},
				{
					"attributes":{
						"POSITION":27,
						"NORMAL":28,
						"TEXCOORD_0":29
					},
					"indices":7,
					"material":1
				},
				{
					"attributes":{
						"POSITION":30,
						"NORMAL":31,
						"TEXCOORD_0":32
					},
					"indices":11,
					"material":2
				},
				{
					"attributes":{
						"POSITION":33,
						"NORMAL":34,
						"TEXCOORD_0":35
					},
					"indices":15,
					"material":3
				},
				{
					"attributes":{
						"POSITION":36,
						"NORMAL":37,
						"TEXCOORD_0":38
					},
					"indices":19,
					"material":4
				},
				{
					"attributes":{
						"POSITION":39,
						"NORMAL":40,
						"TEXCOORD_0":41
					},
					"indices":23,
					"material":5
				}
			]
		},
		{
			"name":"Torus.016",
			"primitives":[
				{
					"attributes":{
						"POSITION":42,
						"NORMAL":43,
						"TEXCOORD_0":44
					},
					"indices":45,
					"material":6
				}
			]
		},
		{
			"name":"Torus.002",
			"primitives":[
				{
					"attributes":{
						"POSITION":46,
						"NORMAL":47,
						"TEXCOORD_0":48
					},
					"indices":45,
					"material":6
				}
			]
		}
	],
	"textures":[
		{
			"sampler":0,
			"source":0
		}
	],
	"images":[
		{
			"mimeType":"image/png",
			"name":"donut base",
			"uri":"donut%20base.png"
		}
	],
	"accessors":[
		{
			"bufferView":0,
			"componentType":5126,
			"count":40168,
			"max":[
				0.1569109559059143,
				0.05903176963329315,
				0.16025376319885254
			],
			"min":[
				-0.16004428267478943,
				-0.03768622502684593,
				-0.16049304604530334
			],
			"type":"VEC3"
		},
		{
			"bufferView":1,
			"componentType":5126,
			"count":40168,
			"type":"VEC3"
		},
		{
			"bufferView":2,
			"componentType":5126,
			"count":40168,
			"type":"VEC2"
		},
		{
			"bufferView":3,
			"componentType":5123,
			"count":240384,
			"type":"SCALAR"
		},
		{
			"bufferView":4,
			"componentType":5126,
			"count":4384,
			"max":[
				0.15145312249660492,
				0.06268388032913208,
				0.11717215180397034
			],
			"min":[
				-0.097215935587883,
				0.026143889874219894,
				-0.11930795758962631
			],
			"type":"VEC3"
		},
		{
			"bufferView":5,
			"componentType":5126,
			"count":4384,
			"type":"VEC3"
		},
		{
			"bufferView":6,
			"componentType":5126,
			"count":4384,
			"type":"VEC2"
		},
		{
			"bufferView":7,
			"componentType":5123,
			"count":18240,
			"type":"SCALAR"
		},
		{
			"bufferView":8,
			"componentType":5126,
			"count":2210,
			"max":[
				0.13929292559623718,
				0.06213997304439545,
				0.11207461357116699
			],
			"min":[
				-0.08647926151752472,
				0.036387067288160324,
				-0.11398038268089294
			],
			"type":"VEC3"
		},
		{
			"bufferView":9,
			"componentType":5126,
			"count":2210,
			"type":"VEC3"
		},
		{
			"bufferView":10,
			"componentType":5126,
			"count":2210,
			"type":"VEC2"
		},
		{
			"bufferView":11,
			"componentType":5123,
			"count":7332,
			"type":"SCALAR"
		},
		{
			"bufferView":12,
			"componentType":5126,
			"count":2380,
			"max":[
				0.0961400493979454,
				0.06296054273843765,
				0.12270571291446686
			],
			"min":[
				-0.12467734515666962,
				0.04559236764907837,
				-0.1004362478852272
			],
			"type":"VEC3"
		},
		{
			"bufferView":13,
			"componentType":5126,
			"count":2380,
			"type":"VEC3"
		},
		{
			"bufferView":14,
			"componentType":5126,
			"count":2380,
			"type":"VEC2"
		},
		{
			"bufferView":15,
			"componentType":5123,
			"count":7896,
			"type":"SCALAR"
		},
		{
			"bufferView":16,
			"componentType":5126,
			"count":2720,
			"max":[
				0.12010406702756882,
				0.06178125739097595,
				0.13189883530139923
			],
			"min":[
				-0.12264882028102875,
				0.037994787096977234,
				-0.12236738204956055
			],
			"type":"VEC3"
		},
		{
			"bufferView":17,
			"componentType":5126,
			"count":2720,
			"type":"VEC3"
		},
		{
			"bufferView":18,
			"componentType":5126,
			"count":2720,
			"type":"VEC2"
		},
		{
			"bufferView":19,
			"componentType":5123,
			"count":9024,
			"type":"SCALAR"
		},
		{
			"bufferView":20,
			"componentType":5126,
			"count":2415,
			"max":[
				0.11906012147665024,
				0.060186926275491714,
				0.11682683229446411
			],
			"min":[
				-0.10914257168769836,
				0.035583727061748505,
				-0.13276316225528717
			],
			"type":"VEC3"
		},
		{
			"bufferView":21,
			"componentType":5126,
			"count":2415,
			"type":"VEC3"
		},
		{
			"bufferView":22,
			"componentType":5126,
			"count":2415,
			"type":"VEC2"
		},
		{
			"bufferView":23,
			"componentType":5123,
			"count":10584,
			"type":"SCALAR"
		},
		{
			"bufferView":24,
			"componentType":5126,
			"count":40168,
			"max":[
				0.1569109559059143,
				0.05903176963329315,
				0.16025376319885254
			],
			"min":[
				-0.16004428267478943,
				-0.03768622502684593,
				-0.16049304604530334
			],
			"type":"VEC3"
		},
		{
			"bufferView":25,
			"componentType":5126,
			"count":40168,
			"type":"VEC3"
		},
		{
			"bufferView":26,
			"componentType":5126,
			"count":40168,
			"type":"VEC2"
		},
		{
			"bufferView":27,
			"componentType":5126,
			"count":4384,
			"max":[
				0.15145312249660492,
				0.06268388032913208,
				0.11717215180397034
			],
			"min":[
				-0.097215935587883,
				0.026143889874219894,
				-0.11930795758962631
			],
			"type":"VEC3"
		},
		{
			"bufferView":28,
			"componentType":5126,
			"count":4384,
			"type":"VEC3"
		},
		{
			"bufferView":29,
			"componentType":5126,
			"count":4384,
			"type":"VEC2"
		},
		{
			"bufferView":30,
			"componentType":5126,
			"count":2210,
			"max":[
				0.13929292559623718,
				0.06213997304439545,
				0.11207461357116699
			],
			"min":[
				-0.08647926151752472,
				0.036387067288160324,
				-0.11398038268089294
			],
			"type":"VEC3"
		},
		{
			"bufferView":31,
			"componentType":5126,
			"count":2210,
			"type":"VEC3"
		},
		{
			"bufferView":32,
			"componentType":5126,
			"count":2210,
			"type":"VEC2"
		},
		{
			"bufferView":33,
			"componentType":5126,
			"count":2380,
			"max":[
				0.0961400493979454,
				0.06296054273843765,
				0.12270571291446686
			],
			"min":[
				-0.12467734515666962,
				0.04559236764907837,
				-0.1004362478852272
			],
			"type":"VEC3"
		},
		{
			"bufferView":34,
			"componentType":5126,
			"count":2380,
			"type":"VEC3"
		},
		{
			"bufferView":35,
			"componentType":5126,
			"count":2380,
			"type":"VEC2"
		},
		{
			"bufferView":36,
			"componentType":5126,
			"count":2720,
			"max":[
				0.12010406702756882,
				0.06178125739097595,
				0.13189883530139923
			],
			"min":[
				-0.12264882028102875,
				0.037994787096977234,
				-0.12236738204956055
			],
			"type":"VEC3"
		},
		{
			"bufferView":37,
			"componentType":5126,
			"count":2720,
			"type":"VEC3"
		},
		{
			"bufferView":38,
			"componentType":5126,
			"count":2720,
			"type":"VEC2"
		},
		{
			"bufferView":39,
			"componentType":5126,
			"count":2415,
			"max":[
				0.11906012147665024,
				0.060186926275491714,
				0.11682683229446411
			],
			"min":[
				-0.10914257168769836,
				0.035583727061748505,
				-0.13276316225528717
			],
			"type":"VEC3"
		},
		{
			"bufferView":40,
			"componentType":5126,
			"count":2415,
			"type":"VEC3"
		},
		{
			"bufferView":41,
			"componentType":5126,
			"count":2415,
			"type":"VEC2"
		},
		{
			"bufferView":42,
			"componentType":5126,
			"count":637,
			"max":[
				0.1554574966430664,
				0.05848466977477074,
				0.15865540504455566
			],
			"min":[
				-0.15869298577308655,
				-0.056249577552080154,
				-0.15868979692459106
			],
			"type":"VEC3"
		},
		{
			"bufferView":43,
			"componentType":5126,
			"count":637,
			"type":"VEC3"
		},
		{
			"bufferView":44,
			"componentType":5126,
			"count":637,
			"type":"VEC2"
		},
		{
			"bufferView":45,
			"componentType":5123,
			"count":3456,
			"type":"SCALAR"
		},
		{
			"bufferView":46,
			"componentType":5126,
			"count":637,
			"max":[
				0.1554574966430664,
				0.05848466977477074,
				0.15865540504455566
			],
			"min":[
				-0.15869298577308655,
				-0.056249577552080154,
				-0.15868979692459106
			],
			"type":"VEC3"
		},
		{
			"bufferView":47,
			"componentType":5126,
			"count":637,
			"type":"VEC3"
		},
		{
			"bufferView":48,
			"componentType":5126,
			"count":637,
			"type":"VEC2"
		},
		{
			"bufferView":49,
			"componentType":5126,
			"count":1,
			"max":[
				0.041666666666666664
			],
			"min":[
				0.041666666666666664
			],
			"type":"SCALAR"
		},
		{
			"bufferView":50,
			"componentType":5126,
			"count":1,
			"type":"VEC3"
		},
		{
			"bufferView":51,
			"componentType":5126,
			"count":1,
			"type":"VEC4"
		},
		{
			"bufferView":52,
			"componentType":5126,
			"count":1,
			"type":"VEC3"
		},
		{
			"bufferView":53,
			"componentType":5126,
			"count":1,
			"type":"VEC3"
		},
		{
			"bufferView":54,
			"componentType":5126,
			"count":1,
			"type":"VEC4"
		},
		{
			"bufferView":55,
			"componentType":5126,
			"count":1,
			"type":"VEC3"
		},
		{
			"bufferView":56,
			"componentType":5126,
			"count":1,
			"type":"VEC3"
		},
		{
			"bufferView":57,
			"componentType":5126,
			"count":1,
			"type":"VEC4"
		},
		{
			"bufferView":58,
			"componentType":5126,
			"count":1,
			"type":"VEC3"
		},
		{
			"bufferView":59,
			"componentType":5126,
			"count":1,
			"type":"VEC3"
		},
		{
			"bufferView":60,
			"componentType":5126,
			"count":1,
			"type":"VEC4"
		},
		{
			"bufferView":61,
			"componentType":5126,
			"count":1,
			"type":"VEC3"
		}
	],
	"bufferViews":[
		{
			"buffer":0,
			"byteLength":482016,
			"byteOffset":0,
			"target":34962
		},
		{
			"buffer":0,
			"byteLength":482016,
			"byteOffset":482016,
			"target":34962
		},
		{
			"buffer":0,
			"byteLength":321344,
			"byteOffset":964032,
			"target":34962
		},
		{
			"buffer":0,
			"byteLength":480768,
			"byteOffset":1285376,
			"target":34963
		},
		{
			"buffer":0,
			"byteLength":52608,
			"byteOffset":1766144,
			"target":34962
		},
		{
			"buffer":0,
			"byteLength":52608,
			"byteOffset":1818752,
			"target":34962
		},
		{
			"buffer":0,
			"byteLength":35072,
			"byteOffset":1871360,
			"target":34962
		},
		{
			"buffer":0,
			"byteLength":36480,
			"byteOffset":1906432,
			"target":34963
		},
		{
			"buffer":0,
			"byteLength":26520,
			"byteOffset":1942912,
			"target":34962
		},
		{
			"buffer":0,
			"byteLength":26520,
			"byteOffset":1969432,
			"target":34962
		},
		{
			"buffer":0,
			"byteLength":17680,
			"byteOffset":1995952,
			"target":34962
		},
		{
			"buffer":0,
			"byteLength":14664,
			"byteOffset":2013632,
			"target":34963
		},
		{
			"buffer":0,
			"byteLength":28560,
			"byteOffset":2028296,
			"target":34962
		},
		{
			"buffer":0,
			"byteLength":28560,
			"byteOffset":2056856,
			"target":34962
		},
		{
			"buffer":0,
			"byteLength":19040,
			"byteOffset":2085416,
			"target":34962
		},
		{
			"buffer":0,
			"byteLength":15792,
			"byteOffset":2104456,
			"target":34963
		},
		{
			"buffer":0,
			"byteLength":32640,
			"byteOffset":2120248,
			"target":34962
		},
		{
			"buffer":0,
			"byteLength":32640,
			"byteOffset":2152888,
			"target":34962
		},
		{
			"buffer":0,
			"byteLength":21760,
			"byteOffset":2185528,
			"target":34962
		},
		{
			"buffer":0,
			"byteLength":18048,
			"byteOffset":2207288,
			"target":34963
		},
		{
			"buffer":0,
			"byteLength":28980,
			"byteOffset":2225336,
			"target":34962
		},
		{
			"buffer":0,
			"byteLength":28980,
			"byteOffset":2254316,
			"target":34962
		},
		{
			"buffer":0,
			"byteLength":19320,
			"byteOffset":2283296,
			"target":34962
		},
		{
			"buffer":0,
			"byteLength":21168,
			"byteOffset":2302616,
			"target":34963
		},
		{
			"buffer":0,
			"byteLength":482016,
			"byteOffset":2323784,
			"target":34962
		},
		{
			"buffer":0,
			"byteLength":482016,
			"byteOffset":2805800,
			"target":34962
		},
		{
			"buffer":0,
			"byteLength":321344,
			"byteOffset":3287816,
			"target":34962
		},
		{
			"buffer":0,
			"byteLength":52608,
			"byteOffset":3609160,
			"target":34962
		},
		{
			"buffer":0,
			"byteLength":52608,
			"byteOffset":3661768,
			"target":34962
		},
		{
			"buffer":0,
			"byteLength":35072,
			"byteOffset":3714376,
			"target":34962
		},
		{
			"buffer":0,
			"byteLength":26520,
			"byteOffset":3749448,
			"target":34962
		},
		{
			"buffer":0,
			"byteLength":26520,
			"byteOffset":3775968,
			"target":34962
		},
		{
			"buffer":0,
			"byteLength":17680,
			"byteOffset":3802488,
			"target":34962
		},
		{
			"buffer":0,
			"byteLength":28560,
			"byteOffset":3820168,
			"target":34962
		},
		{
			"buffer":0,
			"byteLength":28560,
			"byteOffset":3848728,
			"target":34962
		},
		{
			"buffer":0,
			"byteLength":19040,
			"byteOffset":3877288,
			"target":34962
		},
		{
			"buffer":0,
			"byteLength":32640,
			"byteOffset":3896328,
			"target":34962
		},
		{
			"buffer":0,
			"byteLength":32640,
			"byteOffset":3928968,
			"target":34962
		},
		{
			"buffer":0,
			"byteLength":21760,
			"byteOffset":3961608,
			"target":34962
		},
		{
			"buffer":0,
			"byteLength":28980,
			"byteOffset":3983368,
			"target":34962
		},
		{
			"buffer":0,
			"byteLength":28980,
			"byteOffset":4012348,
			"target":34962
		},
		{
			"buffer":0,
			"byteLength":19320,
			"byteOffset":4041328,
			"target":34962
		},
		{
			"buffer":0,
			"byteLength":7644,
			"byteOffset":4060648,
			"target":34962
		},
		{
			"buffer":0,
			"byteLength":7644,
			"byteOffset":4068292,
			"target":34962
		},
		{
			"buffer":0,
			"byteLength":5096,
			"byteOffset":4075936,
			"target":34962
		},
		{
			"buffer":0,
			"byteLength":6912,
			"byteOffset":4081032,
			"target":34963
		},
		{
			"buffer":0,
			"byteLength":7644,
			"byteOffset":4087944,
			"target":34962
		},
		{
			"buffer":0,
			"byteLength":7644,
			"byteOffset":4095588,
			"target":34962
		},
		{
			"buffer":0,
			"byteLength":5096,
			"byteOffset":4103232,
			"target":34962
		},
		{
			"buffer":0,
			"byteLength":4,
			"byteOffset":4108328
		},
		{
			"buffer":0,
			"byteLength":12,
			"byteOffset":4108332
		},
		{
			"buffer":0,
			"byteLength":16,
			"byteOffset":4108344
		},
		{
			"buffer":0,
			"byteLength":12,
			"byteOffset":4108360
		},
		{
			"buffer":0,
			"byteLength":12,
			"byteOffset":4108372
		},
		{
			"buffer":0,
			"byteLength":16,
			"byteOffset":4108384
		},
		{
			"buffer":0,
			"byteLength":12,
			"byteOffset":4108400
		},
		{
			"buffer":0,
			"byteLength":12,
			"byteOffset":4108412
		},
		{
			"buffer":0,
			"byteLength":16,
			"byteOffset":4108424
		},
		{
			"buffer":0,
			"byteLength":12,
			"byteOffset":4108440
		},
		{
			"buffer":0,
			"byteLength":12,
			"byteOffset":4108452
		},
		{
			"buffer":0,
			"byteLength":16,
			"byteOffset":4108464
		},
		{
			"buffer":0,
			"byteLength":12,
			"byteOffset":4108480
		}
	],
	"samplers":[
		{
			"magFilter":9729,
			"minFilter":9987
		}
	],
	"buffers":[
		{
			"byteLength":4108492,
			"uri":"double.bin"
		}
	]
}
