{
	"asset":{
		"generator":"Khronos glTF Blender I/O v4.0.44",
		"version":"2.0"
	},
	"scene":0,
	"scenes":[
		{
			"name":"Scene",
			"nodes":[
				1
			]
		}
	],
	"nodes":[
		{
			"mesh":0,
			"name":"icing.001"
		},
		{
			"children":[
				0
			],
			"mesh":1,
			"name":"Donut.001",
			"rotation":[
				0,
				0.7530402541160583,
				0,
				0.6579744219779968
			],
			"scale":[
				0.4525316059589386,
				0.4525316059589386,
				0.4525316059589386
			],
			"translation":[
				-0.0015861904248595238,
				0.008394530043005943,
				-0.00019436702132225037
			]
		}
	],
	"animations":[
		{
			"channels":[
				{
					"sampler":0,
					"target":{
						"node":1,
						"path":"translation"
					}
				},
				{
					"sampler":1,
					"target":{
						"node":1,
						"path":"rotation"
					}
				},
				{
					"sampler":2,
					"target":{
						"node":1,
						"path":"scale"
					}
				}
			],
			"name":"Donut.001Action",
			"samplers":[
				{
					"input":12,
					"interpolation":"LINEAR",
					"output":13
				},
				{
					"input":12,
					"interpolation":"LINEAR",
					"output":14
				},
				{
					"input":12,
					"interpolation":"LINEAR",
					"output":15
				}
			]
		}
	],
	"materials":[
		{
			"doubleSided":true,
			"name":"Material.001",
			"pbrMetallicRoughness":{
				"baseColorFactor":[
					0.05128830671310425,
					0.3932211995124817,
					0.5698761940002441,
					1
				],
				"metallicFactor":0,
				"roughnessFactor":0.30263155698776245
			}
		},
		{
			"doubleSided":true,
			"name":"sprinkle.001",
			"pbrMetallicRoughness":{
				"metallicFactor":0,
				"roughnessFactor":0.5
			}
		},
		{
			"doubleSided":true,
			"name":"Material.002",
			"pbrMetallicRoughness":{
				"baseColorTexture":{
					"index":0
				},
				"metallicFactor":0,
				"roughnessFactor":0.5
			}
		}
	],
	"meshes":[
		{
			"name":"Torus.006",
			"primitives":[
				{
					"attributes":{
						"POSITION":0,
						"NORMAL":1,
						"TEXCOORD_0":2
					},
					"indices":3,
					"material":0
				},
				{
					"attributes":{
						"POSITION":4,
						"NORMAL":5,
						"TEXCOORD_0":6
					},
					"indices":7,
					"material":1
				}
			]
		},
		{
			"name":"Torus.005",
			"primitives":[
				{
					"attributes":{
						"POSITION":8,
						"NORMAL":9,
						"TEXCOORD_0":10
					},
					"indices":11,
					"material":2
				}
			]
		}
	],
	"textures":[
		{
			"sampler":0,
			"source":0
		}
	],
	"images":[
		{
			"mimeType":"image/png",
			"name":"donut base",
			"uri":"donut%20base.png"
		}
	],
	"accessors":[
		{
			"bufferView":0,
			"componentType":5126,
			"count":40168,
			"max":[
				0.1569109559059143,
				0.05903176963329315,
				0.16025376319885254
			],
			"min":[
				-0.16004428267478943,
				-0.03768622502684593,
				-0.16049304604530334
			],
			"type":"VEC3"
		},
		{
			"bufferView":1,
			"componentType":5126,
			"count":40168,
			"type":"VEC3"
		},
		{
			"bufferView":2,
			"componentType":5126,
			"count":40168,
			"type":"VEC2"
		},
		{
			"bufferView":3,
			"componentType":5123,
			"count":240384,
			"type":"SCALAR"
		},
		{
			"bufferView":4,
			"componentType":5126,
			"count":39078,
			"max":[
				0.14855557680130005,
				0.06372341513633728,
				0.1577761024236679
			],
			"min":[
				-0.12828609347343445,
				0.023969773203134537,
				-0.13411273062229156
			],
			"type":"VEC3"
		},
		{
			"bufferView":5,
			"componentType":5126,
			"count":39078,
			"type":"VEC3"
		},
		{
			"bufferView":6,
			"componentType":5126,
			"count":39078,
			"type":"VEC2"
		},
		{
			"bufferView":7,
			"componentType":5123,
			"count":142812,
			"type":"SCALAR"
		},
		{
			"bufferView":8,
			"componentType":5126,
			"count":637,
			"max":[
				0.1554574966430664,
				0.05848466977477074,
				0.15865540504455566
			],
			"min":[
				-0.15869298577308655,
				-0.056249577552080154,
				-0.15868979692459106
			],
			"type":"VEC3"
		},
		{
			"bufferView":9,
			"componentType":5126,
			"count":637,
			"type":"VEC3"
		},
		{
			"bufferView":10,
			"componentType":5126,
			"count":637,
			"type":"VEC2"
		},
		{
			"bufferView":11,
			"componentType":5123,
			"count":3456,
			"type":"SCALAR"
		},
		{
			"bufferView":12,
			"componentType":5126,
			"count":1,
			"max":[
				0.041666666666666664
			],
			"min":[
				0.041666666666666664
			],
			"type":"SCALAR"
		},
		{
			"bufferView":13,
			"componentType":5126,
			"count":1,
			"type":"VEC3"
		},
		{
			"bufferView":14,
			"componentType":5126,
			"count":1,
			"type":"VEC4"
		},
		{
			"bufferView":15,
			"componentType":5126,
			"count":1,
			"type":"VEC3"
		}
	],
	"bufferViews":[
		{
			"buffer":0,
			"byteLength":482016,
			"byteOffset":0,
			"target":34962
		},
		{
			"buffer":0,
			"byteLength":482016,
			"byteOffset":482016,
			"target":34962
		},
		{
			"buffer":0,
			"byteLength":321344,
			"byteOffset":964032,
			"target":34962
		},
		{
			"buffer":0,
			"byteLength":480768,
			"byteOffset":1285376,
			"target":34963
		},
		{
			"buffer":0,
			"byteLength":468936,
			"byteOffset":1766144,
			"target":34962
		},
		{
			"buffer":0,
			"byteLength":468936,
			"byteOffset":2235080,
			"target":34962
		},
		{
			"buffer":0,
			"byteLength":312624,
			"byteOffset":2704016,
			"target":34962
		},
		{
			"buffer":0,
			"byteLength":285624,
			"byteOffset":3016640,
			"target":34963
		},
		{
			"buffer":0,
			"byteLength":7644,
			"byteOffset":3302264,
			"target":34962
		},
		{
			"buffer":0,
			"byteLength":7644,
			"byteOffset":3309908,
			"target":34962
		},
		{
			"buffer":0,
			"byteLength":5096,
			"byteOffset":3317552,
			"target":34962
		},
		{
			"buffer":0,
			"byteLength":6912,
			"byteOffset":3322648,
			"target":34963
		},
		{
			"buffer":0,
			"byteLength":4,
			"byteOffset":3329560
		},
		{
			"buffer":0,
			"byteLength":12,
			"byteOffset":3329564
		},
		{
			"buffer":0,
			"byteLength":16,
			"byteOffset":3329576
		},
		{
			"buffer":0,
			"byteLength":12,
			"byteOffset":3329592
		}
	],
	"samplers":[
		{
			"magFilter":9729,
			"minFilter":9987
		}
	],
	"buffers":[
		{
			"byteLength":3329604,
			"uri":"blue.bin"
		}
	]
}
