{
	"asset":{
		"generator":"Khronos glTF Blender I/O v4.0.44",
		"version":"2.0"
	},
	"scene":0,
	"scenes":[
		{
			"name":"Scene",
			"nodes":[
				1,
				2,
				3,
				4,
				5,
				6
			]
		}
	],
	"nodes":[
		{
			"mesh":0,
			"name":"icing"
		},
		{
			"children":[
				0
			],
			"mesh":1,
			"name":"Donut",
			"scale":[
				1.941533088684082,
				1.9415329694747925,
				1.941533088684082
			]
		},
		{
			"mesh":2,
			"name":"Cylinder.003",
			"translation":[
				0.3424121141433716,
				0.10151144117116928,
				-0.19350259006023407
			]
		},
		{
			"mesh":3,
			"name":"Cylinder.002",
			"translation":[
				0.3321704566478729,
				0.10151144117116928,
				-0.19350259006023407
			]
		},
		{
			"mesh":4,
			"name":"Cylinder.001",
			"translation":[
				0.32231414318084717,
				0.10164105147123337,
				-0.19516168534755707
			]
		},
		{
			"mesh":5,
			"name":"Cylinder",
			"translation":[
				0.31370872259140015,
				0.10176106542348862,
				-0.19669798016548157
			]
		},
		{
			"mesh":6,
			"name":"Sphere.001",
			"rotation":[
				0.4117220938205719,
				0.1113026887178421,
				-0.23604103922843933,
				0.8731444478034973
			],
			"scale":[
				2.0525717735290527,
				2.0525717735290527,
				2.0525717735290527
			],
			"translation":[
				0.30899643898010254,
				0.20821170508861542,
				-0.35215380787849426
			]
		}
	],
	"materials":[
		{
			"doubleSided":true,
			"name":"Material.005",
			"pbrMetallicRoughness":{
				"baseColorFactor":[
					0.05286962166428566,
					0.009720792062580585,
					0,
					1
				],
				"metallicFactor":0,
				"roughnessFactor":0.30263155698776245
			}
		},
		{
			"doubleSided":true,
			"name":"Material.007",
			"pbrMetallicRoughness":{
				"baseColorFactor":[
					0.30503901839256287,
					0.07035703212022781,
					0,
					1
				],
				"metallicFactor":0,
				"roughnessFactor":0.5
			}
		},
		{
			"doubleSided":true,
			"name":"Material.008",
			"pbrMetallicRoughness":{
				"baseColorFactor":[
					0.30503901839256287,
					0.07035703212022781,
					0,
					1
				],
				"metallicFactor":0,
				"roughnessFactor":0.5
			}
		},
		{
			"doubleSided":true,
			"name":"Material.009",
			"pbrMetallicRoughness":{
				"baseColorFactor":[
					0.800000011920929,
					0.800000011920929,
					0.800000011920929,
					1
				],
				"metallicFactor":0,
				"roughnessFactor":0.5
			}
		},
		{
			"doubleSided":true,
			"name":"Material.010",
			"pbrMetallicRoughness":{
				"baseColorFactor":[
					0.800000011920929,
					0.800000011920929,
					0.800000011920929,
					1
				],
				"metallicFactor":0,
				"roughnessFactor":0.5
			}
		},
		{
			"doubleSided":true,
			"name":"Material",
			"pbrMetallicRoughness":{
				"baseColorFactor":[
					0.30503901839256287,
					0.07035703212022781,
					0,
					1
				],
				"metallicFactor":0,
				"roughnessFactor":0.5
			}
		},
		{
			"doubleSided":true,
			"name":"Material.006",
			"pbrMetallicRoughness":{
				"baseColorTexture":{
					"index":0
				},
				"metallicFactor":0,
				"roughnessFactor":0.5
			}
		}
	],
	"meshes":[
		{
			"name":"Torus.003",
			"primitives":[
				{
					"attributes":{
						"POSITION":0,
						"NORMAL":1,
						"TEXCOORD_0":2
					},
					"indices":3,
					"material":0
				},
				{
					"attributes":{
						"POSITION":4,
						"NORMAL":5,
						"TEXCOORD_0":6
					},
					"indices":7,
					"material":1
				},
				{
					"attributes":{
						"POSITION":8,
						"NORMAL":9,
						"TEXCOORD_0":10
					},
					"indices":11,
					"material":2
				},
				{
					"attributes":{
						"POSITION":12,
						"NORMAL":13,
						"TEXCOORD_0":14
					},
					"indices":15,
					"material":3
				},
				{
					"attributes":{
						"POSITION":16,
						"NORMAL":17,
						"TEXCOORD_0":18
					},
					"indices":19,
					"material":4
				},
				{
					"attributes":{
						"POSITION":20,
						"NORMAL":21,
						"TEXCOORD_0":22
					},
					"indices":23,
					"material":5
				}
			]
		},
		{
			"name":"Torus.001",
			"primitives":[
				{
					"attributes":{
						"POSITION":24,
						"NORMAL":25,
						"TEXCOORD_0":26
					},
					"indices":27,
					"material":6
				}
			]
		},
		{
			"name":"Cylinder.009",
			"primitives":[
				{
					"attributes":{
						"POSITION":28,
						"NORMAL":29,
						"TEXCOORD_0":30
					},
					"indices":31,
					"material":1
				}
			]
		},
		{
			"name":"Cylinder.007",
			"primitives":[
				{
					"attributes":{
						"POSITION":32,
						"NORMAL":33,
						"TEXCOORD_0":34
					},
					"indices":35,
					"material":2
				}
			]
		},
		{
			"name":"Cylinder.004",
			"primitives":[
				{
					"attributes":{
						"POSITION":36,
						"NORMAL":37,
						"TEXCOORD_0":38
					},
					"indices":35,
					"material":3
				}
			]
		},
		{
			"name":"Cylinder.003",
			"primitives":[
				{
					"attributes":{
						"POSITION":39,
						"NORMAL":40,
						"TEXCOORD_0":41
					},
					"indices":35,
					"material":4
				}
			]
		},
		{
			"name":"Sphere.001",
			"primitives":[
				{
					"attributes":{
						"POSITION":42,
						"NORMAL":43,
						"TEXCOORD_0":44
					},
					"indices":45,
					"material":5
				}
			]
		}
	],
	"textures":[
		{
			"sampler":0,
			"source":0
		}
	],
	"images":[
		{
			"mimeType":"image/png",
			"name":"donut base",
			"uri":"donut%20base.png"
		}
	],
	"accessors":[
		{
			"bufferView":0,
			"componentType":5126,
			"count":40168,
			"max":[
				0.1569109559059143,
				0.05903176963329315,
				0.16025376319885254
			],
			"min":[
				-0.16004428267478943,
				-0.03768622502684593,
				-0.16049304604530334
			],
			"type":"VEC3"
		},
		{
			"bufferView":1,
			"componentType":5126,
			"count":40168,
			"type":"VEC3"
		},
		{
			"bufferView":2,
			"componentType":5126,
			"count":40168,
			"type":"VEC2"
		},
		{
			"bufferView":3,
			"componentType":5123,
			"count":240384,
			"type":"SCALAR"
		},
		{
			"bufferView":4,
			"componentType":5126,
			"count":4384,
			"max":[
				0.15145312249660492,
				0.06268388032913208,
				0.11717215180397034
			],
			"min":[
				-0.097215935587883,
				0.026143889874219894,
				-0.11930795758962631
			],
			"type":"VEC3"
		},
		{
			"bufferView":5,
			"componentType":5126,
			"count":4384,
			"type":"VEC3"
		},
		{
			"bufferView":6,
			"componentType":5126,
			"count":4384,
			"type":"VEC2"
		},
		{
			"bufferView":7,
			"componentType":5123,
			"count":18240,
			"type":"SCALAR"
		},
		{
			"bufferView":8,
			"componentType":5126,
			"count":2210,
			"max":[
				0.13929292559623718,
				0.06213997304439545,
				0.11207461357116699
			],
			"min":[
				-0.08647926151752472,
				0.036387067288160324,
				-0.11398038268089294
			],
			"type":"VEC3"
		},
		{
			"bufferView":9,
			"componentType":5126,
			"count":2210,
			"type":"VEC3"
		},
		{
			"bufferView":10,
			"componentType":5126,
			"count":2210,
			"type":"VEC2"
		},
		{
			"bufferView":11,
			"componentType":5123,
			"count":7332,
			"type":"SCALAR"
		},
		{
			"bufferView":12,
			"componentType":5126,
			"count":2380,
			"max":[
				0.0961400493979454,
				0.06296054273843765,
				0.12270571291446686
			],
			"min":[
				-0.12467734515666962,
				0.04559236764907837,
				-0.1004362478852272
			],
			"type":"VEC3"
		},
		{
			"bufferView":13,
			"componentType":5126,
			"count":2380,
			"type":"VEC3"
		},
		{
			"bufferView":14,
			"componentType":5126,
			"count":2380,
			"type":"VEC2"
		},
		{
			"bufferView":15,
			"componentType":5123,
			"count":7896,
			"type":"SCALAR"
		},
		{
			"bufferView":16,
			"componentType":5126,
			"count":2720,
			"max":[
				0.12010406702756882,
				0.06178125739097595,
				0.13189883530139923
			],
			"min":[
				-0.12264882028102875,
				0.037994787096977234,
				-0.12236738204956055
			],
			"type":"VEC3"
		},
		{
			"bufferView":17,
			"componentType":5126,
			"count":2720,
			"type":"VEC3"
		},
		{
			"bufferView":18,
			"componentType":5126,
			"count":2720,
			"type":"VEC2"
		},
		{
			"bufferView":19,
			"componentType":5123,
			"count":9024,
			"type":"SCALAR"
		},
		{
			"bufferView":20,
			"componentType":5126,
			"count":2415,
			"max":[
				0.11906012147665024,
				0.060186926275491714,
				0.11682683229446411
			],
			"min":[
				-0.10914257168769836,
				0.035583727061748505,
				-0.13276316225528717
			],
			"type":"VEC3"
		},
		{
			"bufferView":21,
			"componentType":5126,
			"count":2415,
			"type":"VEC3"
		},
		{
			"bufferView":22,
			"componentType":5126,
			"count":2415,
			"type":"VEC2"
		},
		{
			"bufferView":23,
			"componentType":5123,
			"count":10584,
			"type":"SCALAR"
		},
		{
			"bufferView":24,
			"componentType":5126,
			"count":637,
			"max":[
				0.1554574966430664,
				0.05848466977477074,
				0.15865540504455566
			],
			"min":[
				-0.15869298577308655,
				-0.056249577552080154,
				-0.15868979692459106
			],
			"type":"VEC3"
		},
		{
			"bufferView":25,
			"componentType":5126,
			"count":637,
			"type":"VEC3"
		},
		{
			"bufferView":26,
			"componentType":5126,
			"count":637,
			"type":"VEC2"
		},
		{
			"bufferView":27,
			"componentType":5123,
			"count":3456,
			"type":"SCALAR"
		},
		{
			"bufferView":28,
			"componentType":5126,
			"count":274,
			"max":[
				0.0030527773778885603,
				0.004043982829898596,
				0.007408412639051676
			],
			"min":[
				-0.003052777610719204,
				-0.0031347423791885376,
				-0.007592121604830027
			],
			"type":"VEC3"
		},
		{
			"bufferView":29,
			"componentType":5126,
			"count":274,
			"type":"VEC3"
		},
		{
			"bufferView":30,
			"componentType":5126,
			"count":274,
			"type":"VEC2"
		},
		{
			"bufferView":31,
			"componentType":5123,
			"count":1140,
			"type":"SCALAR"
		},
		{
			"bufferView":32,
			"componentType":5126,
			"count":192,
			"max":[
				0.0030527773778885603,
				0.0035107010044157505,
				0.007214835844933987
			],
			"min":[
				-0.0030527778435498476,
				-0.003510700538754463,
				-0.007214837241917849
			],
			"type":"VEC3"
		},
		{
			"bufferView":33,
			"componentType":5126,
			"count":192,
			"type":"VEC3"
		},
		{
			"bufferView":34,
			"componentType":5126,
			"count":192,
			"type":"VEC2"
		},
		{
			"bufferView":35,
			"componentType":5123,
			"count":564,
			"type":"SCALAR"
		},
		{
			"bufferView":36,
			"componentType":5126,
			"count":192,
			"max":[
				0.0030527773778885603,
				0.0033810939639806747,
				0.005555746611207724
			],
			"min":[
				-0.0030527778435498476,
				-0.0033810932654887438,
				-0.005555746611207724
			],
			"type":"VEC3"
		},
		{
			"bufferView":37,
			"componentType":5126,
			"count":192,
			"type":"VEC3"
		},
		{
			"bufferView":38,
			"componentType":5126,
			"count":192,
			"type":"VEC2"
		},
		{
			"bufferView":39,
			"componentType":5126,
			"count":192,
			"max":[
				0.0030527773778885603,
				0.003261079080402851,
				0.004019447602331638
			],
			"min":[
				-0.0030527778435498476,
				-0.00326107838191092,
				-0.004019447602331638
			],
			"type":"VEC3"
		},
		{
			"bufferView":40,
			"componentType":5126,
			"count":192,
			"type":"VEC3"
		},
		{
			"bufferView":41,
			"componentType":5126,
			"count":192,
			"type":"VEC2"
		},
		{
			"bufferView":42,
			"componentType":5126,
			"count":115,
			"max":[
				0.0027015444356948137,
				0.0027015444356948137,
				0.0027015444356948137
			],
			"min":[
				-0.0027015444356948137,
				-0.0027015444356948137,
				-0.0027015444356948137
			],
			"type":"VEC3"
		},
		{
			"bufferView":43,
			"componentType":5126,
			"count":115,
			"type":"VEC3"
		},
		{
			"bufferView":44,
			"componentType":5126,
			"count":115,
			"type":"VEC2"
		},
		{
			"bufferView":45,
			"componentType":5123,
			"count":504,
			"type":"SCALAR"
		}
	],
	"bufferViews":[
		{
			"buffer":0,
			"byteLength":482016,
			"byteOffset":0,
			"target":34962
		},
		{
			"buffer":0,
			"byteLength":482016,
			"byteOffset":482016,
			"target":34962
		},
		{
			"buffer":0,
			"byteLength":321344,
			"byteOffset":964032,
			"target":34962
		},
		{
			"buffer":0,
			"byteLength":480768,
			"byteOffset":1285376,
			"target":34963
		},
		{
			"buffer":0,
			"byteLength":52608,
			"byteOffset":1766144,
			"target":34962
		},
		{
			"buffer":0,
			"byteLength":52608,
			"byteOffset":1818752,
			"target":34962
		},
		{
			"buffer":0,
			"byteLength":35072,
			"byteOffset":1871360,
			"target":34962
		},
		{
			"buffer":0,
			"byteLength":36480,
			"byteOffset":1906432,
			"target":34963
		},
		{
			"buffer":0,
			"byteLength":26520,
			"byteOffset":1942912,
			"target":34962
		},
		{
			"buffer":0,
			"byteLength":26520,
			"byteOffset":1969432,
			"target":34962
		},
		{
			"buffer":0,
			"byteLength":17680,
			"byteOffset":1995952,
			"target":34962
		},
		{
			"buffer":0,
			"byteLength":14664,
			"byteOffset":2013632,
			"target":34963
		},
		{
			"buffer":0,
			"byteLength":28560,
			"byteOffset":2028296,
			"target":34962
		},
		{
			"buffer":0,
			"byteLength":28560,
			"byteOffset":2056856,
			"target":34962
		},
		{
			"buffer":0,
			"byteLength":19040,
			"byteOffset":2085416,
			"target":34962
		},
		{
			"buffer":0,
			"byteLength":15792,
			"byteOffset":2104456,
			"target":34963
		},
		{
			"buffer":0,
			"byteLength":32640,
			"byteOffset":2120248,
			"target":34962
		},
		{
			"buffer":0,
			"byteLength":32640,
			"byteOffset":2152888,
			"target":34962
		},
		{
			"buffer":0,
			"byteLength":21760,
			"byteOffset":2185528,
			"target":34962
		},
		{
			"buffer":0,
			"byteLength":18048,
			"byteOffset":2207288,
			"target":34963
		},
		{
			"buffer":0,
			"byteLength":28980,
			"byteOffset":2225336,
			"target":34962
		},
		{
			"buffer":0,
			"byteLength":28980,
			"byteOffset":2254316,
			"target":34962
		},
		{
			"buffer":0,
			"byteLength":19320,
			"byteOffset":2283296,
			"target":34962
		},
		{
			"buffer":0,
			"byteLength":21168,
			"byteOffset":2302616,
			"target":34963
		},
		{
			"buffer":0,
			"byteLength":7644,
			"byteOffset":2323784,
			"target":34962
		},
		{
			"buffer":0,
			"byteLength":7644,
			"byteOffset":2331428,
			"target":34962
		},
		{
			"buffer":0,
			"byteLength":5096,
			"byteOffset":2339072,
			"target":34962
		},
		{
			"buffer":0,
			"byteLength":6912,
			"byteOffset":2344168,
			"target":34963
		},
		{
			"buffer":0,
			"byteLength":3288,
			"byteOffset":2351080,
			"target":34962
		},
		{
			"buffer":0,
			"byteLength":3288,
			"byteOffset":2354368,
			"target":34962
		},
		{
			"buffer":0,
			"byteLength":2192,
			"byteOffset":2357656,
			"target":34962
		},
		{
			"buffer":0,
			"byteLength":2280,
			"byteOffset":2359848,
			"target":34963
		},
		{
			"buffer":0,
			"byteLength":2304,
			"byteOffset":2362128,
			"target":34962
		},
		{
			"buffer":0,
			"byteLength":2304,
			"byteOffset":2364432,
			"target":34962
		},
		{
			"buffer":0,
			"byteLength":1536,
			"byteOffset":2366736,
			"target":34962
		},
		{
			"buffer":0,
			"byteLength":1128,
			"byteOffset":2368272,
			"target":34963
		},
		{
			"buffer":0,
			"byteLength":2304,
			"byteOffset":2369400,
			"target":34962
		},
		{
			"buffer":0,
			"byteLength":2304,
			"byteOffset":2371704,
			"target":34962
		},
		{
			"buffer":0,
			"byteLength":1536,
			"byteOffset":2374008,
			"target":34962
		},
		{
			"buffer":0,
			"byteLength":2304,
			"byteOffset":2375544,
			"target":34962
		},
		{
			"buffer":0,
			"byteLength":2304,
			"byteOffset":2377848,
			"target":34962
		},
		{
			"buffer":0,
			"byteLength":1536,
			"byteOffset":2380152,
			"target":34962
		},
		{
			"buffer":0,
			"byteLength":1380,
			"byteOffset":2381688,
			"target":34962
		},
		{
			"buffer":0,
			"byteLength":1380,
			"byteOffset":2383068,
			"target":34962
		},
		{
			"buffer":0,
			"byteLength":920,
			"byteOffset":2384448,
			"target":34962
		},
		{
			"buffer":0,
			"byteLength":1008,
			"byteOffset":2385368,
			"target":34963
		}
	],
	"samplers":[
		{
			"magFilter":9729,
			"minFilter":9987
		}
	],
	"buffers":[
		{
			"byteLength":2386376,
			"uri":"chocolate.bin"
		}
	]
}
