{
	"asset":{
		"generator":"Khronos glTF Blender I/O v4.0.44",
		"version":"2.0"
	},
	"scene":0,
	"scenes":[
		{
			"name":"Scene",
			"nodes":[
				1
			]
		}
	],
	"nodes":[
		{
			"mesh":0,
			"name":"icing"
		},
		{
			"children":[
				0
			],
			"mesh":1,
			"name":"Donut",
			"scale":[
				0.21312689781188965,
				0.21312689781188965,
				0.21312689781188965
			],
			"translation":[
				0.022481366991996765,
				0.06338143348693848,
				-0.029896318912506104
			]
		}
	],
	"materials":[
		{
			"doubleSided":true,
			"name":"Material.003",
			"pbrMetallicRoughness":{
				"baseColorFactor":[
					0.05286962166428566,
					0.009720792062580585,
					0,
					1
				],
				"metallicFactor":0,
				"roughnessFactor":0.30263155698776245
			}
		},
		{
			"doubleSided":true,
			"name":"Material.004",
			"pbrMetallicRoughness":{
				"baseColorTexture":{
					"index":0
				},
				"metallicFactor":0,
				"roughnessFactor":0.5
			}
		}
	],
	"meshes":[
		{
			"name":"Torus.003",
			"primitives":[
				{
					"attributes":{
						"POSITION":0,
						"NORMAL":1,
						"TEXCOORD_0":2
					},
					"indices":3,
					"material":0
				}
			]
		},
		{
			"name":"Torus.001",
			"primitives":[
				{
					"attributes":{
						"POSITION":4,
						"NORMAL":5,
						"TEXCOORD_0":6
					},
					"indices":7,
					"material":1
				}
			]
		}
	],
	"textures":[
		{
			"sampler":0,
			"source":0
		}
	],
	"images":[
		{
			"mimeType":"image/png",
			"name":"donut base",
			"uri":"donut%20base.png"
		}
	],
	"accessors":[
		{
			"bufferView":0,
			"componentType":5126,
			"count":40168,
			"max":[
				0.7362325191497803,
				0.2769794464111328,
				0.7519171237945557
			],
			"min":[
				-0.7509342432022095,
				-0.17682528495788574,
				-0.7530398368835449
			],
			"type":"VEC3"
		},
		{
			"bufferView":1,
			"componentType":5126,
			"count":40168,
			"type":"VEC3"
		},
		{
			"bufferView":2,
			"componentType":5126,
			"count":40168,
			"type":"VEC2"
		},
		{
			"bufferView":3,
			"componentType":5123,
			"count":240384,
			"type":"SCALAR"
		},
		{
			"bufferView":4,
			"componentType":5126,
			"count":637,
			"max":[
				0.729412853717804,
				0.2744124233722687,
				0.7444175481796265
			],
			"min":[
				-0.7445938587188721,
				-0.2639252841472626,
				-0.7445788979530334
			],
			"type":"VEC3"
		},
		{
			"bufferView":5,
			"componentType":5126,
			"count":637,
			"type":"VEC3"
		},
		{
			"bufferView":6,
			"componentType":5126,
			"count":637,
			"type":"VEC2"
		},
		{
			"bufferView":7,
			"componentType":5123,
			"count":3456,
			"type":"SCALAR"
		}
	],
	"bufferViews":[
		{
			"buffer":0,
			"byteLength":482016,
			"byteOffset":0,
			"target":34962
		},
		{
			"buffer":0,
			"byteLength":482016,
			"byteOffset":482016,
			"target":34962
		},
		{
			"buffer":0,
			"byteLength":321344,
			"byteOffset":964032,
			"target":34962
		},
		{
			"buffer":0,
			"byteLength":480768,
			"byteOffset":1285376,
			"target":34963
		},
		{
			"buffer":0,
			"byteLength":7644,
			"byteOffset":1766144,
			"target":34962
		},
		{
			"buffer":0,
			"byteLength":7644,
			"byteOffset":1773788,
			"target":34962
		},
		{
			"buffer":0,
			"byteLength":5096,
			"byteOffset":1781432,
			"target":34962
		},
		{
			"buffer":0,
			"byteLength":6912,
			"byteOffset":1786528,
			"target":34963
		}
	],
	"samplers":[
		{
			"magFilter":9729,
			"minFilter":9987
		}
	],
	"buffers":[
		{
			"byteLength":1793440,
			"uri":"chocolate.bin"
		}
	]
}
